<?xml version="1.0" encoding="utf-8"?>
<!-- Generator: Adobe Illustrator 16.0.3, SVG Export Plug-In . SVG Version: 6.00 Build 0)  -->
<!DOCTYPE svg PUBLIC "-//W3C//DTD SVG 1.1//EN" "http://www.w3.org/Graphics/SVG/1.1/DTD/svg11.dtd">
<svg version="1.1" xmlns="http://www.w3.org/2000/svg" xmlns:xlink="http://www.w3.org/1999/xlink" x="0px" y="0px" width="500px"
	 height="185px" viewBox="0 0 500 185" enable-background="new 0 0 500 185" xml:space="preserve">
<g id="Layer_1">
	<rect x="18" y="92" fill="#383838" width="474" height="4"/>
</g>
<g id="Layer_2">
	<path fill="#3F7CA0" d="M418.191,13.879c-13,8.324-20.386,43.11-27.769,77.904c-8.465,39.892-16.93,79.784-33.859,79.784
		c-16.929,0-25.394-39.892-33.857-79.784C314.242,51.892,305.777,12,288.849,12s-25.393,39.892-33.856,79.784
		c-8.464,39.892-16.928,79.784-33.856,79.784c-16.928,0-25.391-39.892-33.855-79.784C178.817,51.892,170.354,12,153.426,12
		c-16.928,0-25.393,39.892-33.856,79.784c-8.464,39.892-16.928,79.784-33.856,79.784s-25.545-39.971-34.163-79.901
		c-8.617-39.931-17.234-79.823-34.162-79.663l6.47,5.857c13.491,7.458,20.896,42.982,28.301,78.475
		C60.475,136.188,68.789,176,85.718,176c16.93,0,25.395-39.892,33.859-79.784c8.465-39.892,16.93-79.783,33.859-79.783
		c16.929,0,25.393,39.892,33.857,79.783C195.758,136.108,204.223,176,221.151,176c16.928,0,25.393-39.892,33.856-79.784
		c8.464-39.892,16.928-79.783,33.856-79.783c16.927,0,25.391,39.892,33.854,79.783C331.183,136.108,339.646,176,356.574,176
		s25.393-39.892,33.856-79.784c7.79-36.714,15.586-73.402,29.974-79.018C419.477,16.226,418.743,15.11,418.191,13.879z"/>
	<rect x="418" y="14" fill="#D64949" width="3" height="78"/>
	<circle fill="none" stroke="#39B54A" stroke-width="3" stroke-miterlimit="10" cx="323" cy="94.333" r="11.667"/>
	<text transform="matrix(1 0 0 1 414.5 116.5)" fill="#D64949" font-family="'SourceCodePro-Regular'" font-size="18">click!</text>
	<rect x="263.666" y="101.334" fill="none" width="114" height="95"/>
	<text transform="matrix(1 0 0 1 263.666 114.1494)"><tspan x="0" y="0" fill="#009245" font-family="'SourceCodePro-Regular'" font-size="18">zero </tspan><tspan x="0" y="21.601" fill="#009245" font-family="'SourceCodePro-Regular'" font-size="18">crossing </tspan><tspan x="0" y="43.2" fill="#009245" font-family="'SourceCodePro-Regular'" font-size="18">point</tspan></text>
</g>
</svg>
